<?xml version="1.0" standalone="no"?><!DOCTYPE svg PUBLIC "-//W3C//DTD SVG 1.1//EN" "http://www.w3.org/Graphics/SVG/1.1/DTD/svg11.dtd"><svg t="1613921083831" class="icon" viewBox="0 0 1024 1024" version="1.1" xmlns="http://www.w3.org/2000/svg" p-id="4175" xmlns:xlink="http://www.w3.org/1999/xlink" width="200" height="200"><defs><style type="text/css"></style></defs><path d="M972.8 256l-153.6-153.6H768L665.6 0H102.4A102.72 102.72 0 0 0 0 102.4v716.8c0 56.32 46.08 102.4 102.4 102.4h51.2C153.6 977.92 199.68 1024 256 1024h665.6c56.32 0 102.4-46.08 102.4-102.4V307.2L972.8 256zM153.6 204.8v665.6H102.4c-30.72 0-51.2-20.48-51.2-51.2V102.4c0-30.72 20.48-51.2 51.2-51.2h563.2v51.2H256a102.72 102.72 0 0 0-102.4 102.4z m819.2 716.8c0 30.72-20.48 51.2-51.2 51.2H256c-30.72 0-51.2-20.48-51.2-51.2V204.8c0-30.72 20.48-51.2 51.2-51.2h563.2v153.6h153.6v614.4z m-358.4-512h-51.2v153.6h-153.6v51.2h153.6V768h51.2v-153.6H768v-51.2h-153.6z" p-id="4176"></path></svg>