<?xml version="1.0" standalone="no"?><!DOCTYPE svg PUBLIC "-//W3C//DTD SVG 1.1//EN" "http://www.w3.org/Graphics/SVG/1.1/DTD/svg11.dtd"><svg t="1613920397392" class="icon" viewBox="0 0 1024 1024" version="1.1" xmlns="http://www.w3.org/2000/svg" p-id="1215" xmlns:xlink="http://www.w3.org/1999/xlink" width="200" height="200"><defs><style type="text/css"></style></defs><path d="M691.961173 684.357973H332.035413c-9.797404 0-17.743076 7.943396-17.743075 17.742507s7.945671 17.742507 17.743075 17.742507h359.92576c9.801387 0 17.742507-7.943396 17.742507-17.742507s-7.94112-17.742507-17.742507-17.742507zM691.961173 784.057458H332.035413c-9.797404 0-17.743076 7.942827-17.743075 17.742506s7.945671 17.742507 17.743075 17.742507h359.92576c9.801387 0 17.742507-7.942827 17.742507-17.742507s-7.94112-17.742507-17.742507-17.742506zM691.961173 883.756942H332.035413c-9.797404 0-17.743076 7.943396-17.743075 17.742507 0 9.800249 7.945671 17.743076 17.743075 17.743075h359.92576c9.801387 0 17.742507-7.943396 17.742507-17.743075s-7.94112-17.742507-17.742507-17.742507z" p-id="1216"></path><path d="M1010.781867 217.465742L802.729529 9.413404a17.744213 17.744213 0 0 0-12.544569-5.195662H56.180053C29.625458 4.217742 8.021333 25.821867 8.021333 52.376462v919.247076c0 26.555164 21.604693 48.159289 48.159289 48.159289H967.821653c26.554596 0 48.15872-21.604693 48.15872-48.159289V230.012587a17.755022 17.755022 0 0 0-5.198506-12.546845zM740.119893 39.703324c6.989938 0 12.673138 5.685476 12.673138 12.673138v232.347307c0 6.987662-5.6832 12.673138-12.673138 12.673138H283.876124c-6.984818 0-12.673138-5.685476-12.673137-12.673138V52.376462c0-6.987662 5.68832-12.673138 12.673137-12.673138h456.243769z m-456.243769 944.594489c-6.984818 0-12.673138-5.686044-12.673137-12.673706v-370.910436c0-6.987662 5.68832-12.673138 12.673137-12.673138h456.243769c6.989938 0 12.673138 5.685476 12.673138 12.673138v370.910436c0 6.987662-5.6832 12.673707-12.673138 12.673706H283.876124z m696.618098-12.673706c0 6.987662-5.68832 12.673707-12.673138 12.673706h-181.289528c1.10592-4.0448 1.747058-8.283022 1.747057-12.673706v-370.910436c0-26.555164-21.604124-48.159289-48.15872-48.159289H283.876124c-26.554596 0-48.15872 21.604693-48.15872 48.159289v370.910436c0 4.391253 0.643413 8.628907 1.749903 12.673706H56.180053c-6.990507 0-12.673707-5.686044-12.673706-12.673706V52.376462c0-6.987662 5.6832-12.673138 12.673706-12.673138h181.286685c-1.106489 4.044231-1.749902 8.282453-1.749902 12.673138v232.347307c0 26.554596 21.604693 48.15872 48.15872 48.15872h456.243768c26.555164 0 48.15872-21.604124 48.15872-48.15872V52.376462c0-2.710756-0.277049-5.351538-0.710542-7.940551l192.926151 192.925582v734.262614z" p-id="1217"></path><path d="M572.726613 260.644409h119.23456c9.801387 0 17.742507-7.943396 17.742507-17.742507v-149.549511c0-9.79968-7.94112-17.742507-17.742507-17.742507h-119.23456c-9.801956 0-17.742507 7.942827-17.742506 17.742507v149.548942c0 9.79968 7.940551 17.743076 17.742506 17.743076z m17.743076-149.548942h83.748978v114.06336h-83.748978V111.095467z" p-id="1218"></path></svg>