<?xml version="1.0" standalone="no"?><!DOCTYPE svg PUBLIC "-//W3C//DTD SVG 1.1//EN" "http://www.w3.org/Graphics/SVG/1.1/DTD/svg11.dtd"><svg t="1587372973525" class="icon" viewBox="0 0 1024 1024" version="1.1" xmlns="http://www.w3.org/2000/svg" p-id="1042" xmlns:xlink="http://www.w3.org/1999/xlink" width="200" height="200"><defs><style type="text/css">@font-face { font-weight: 400; font-style: normal; font-family: Inter-Loom; src: url("https://cdn.loom.com/assets/fonts/inter/Inter-UI-Regular.woff2") format("woff2"); }
@font-face { font-weight: 400; font-style: italic; font-family: Inter-Loom; src: url("https://cdn.loom.com/assets/fonts/inter/Inter-UI-Italic.woff2") format("woff2"); }
@font-face { font-weight: 500; font-style: normal; font-family: Inter-Loom; src: url("https://cdn.loom.com/assets/fonts/inter/Inter-UI-Medium.woff2") format("woff2"); }
@font-face { font-weight: 500; font-style: italic; font-family: Inter-Loom; src: url("https://cdn.loom.com/assets/fonts/inter/Inter-UI-MediumItalic.woff2") format("woff2"); }
@font-face { font-weight: 700; font-style: normal; font-family: Inter-Loom; src: url("https://cdn.loom.com/assets/fonts/inter/Inter-UI-Bold.woff2") format("woff2"); }
@font-face { font-weight: 700; font-style: italic; font-family: Inter-Loom; src: url("https://cdn.loom.com/assets/fonts/inter/Inter-UI-BoldItalic.woff2") format("woff2"); }
@font-face { font-weight: 900; font-style: normal; font-family: Inter-Loom; src: url("https://cdn.loom.com/assets/fonts/inter/Inter-UI-Black.woff2") format("woff2"); }
@font-face { font-weight: 900; font-style: italic; font-family: Inter-Loom; src: url("https://cdn.loom.com/assets/fonts/inter/Inter-UI-BlackItalic.woff2") format("woff2"); }
</style></defs><path d="M397.112195 127.37561h-205.799024a64.007493 64.007493 0 0 0-63.937561 63.937561v205.799024a64.007493 64.007493 0 0 0 63.937561 63.937561h205.799024a64.007493 64.007493 0 0 0 63.937561-63.937561v-205.799024a64.007493 64.007493 0 0 0-63.937561-63.937561z m0 269.736585h-205.799024v-205.799024h205.799024v205.799024zM831.687805 127.37561h-205.799025a64.007493 64.007493 0 0 0-63.93756 63.937561v205.799024a64.007493 64.007493 0 0 0 63.93756 63.937561h205.799025a64.007493 64.007493 0 0 0 63.937561-63.937561v-205.799024a64.007493 64.007493 0 0 0-63.937561-63.937561z m0 269.736585h-205.799025v-205.799024h205.799025v205.799024zM397.112195 557.955122h-205.799024a64.007493 64.007493 0 0 0-63.937561 63.937561v205.799024a64.007493 64.007493 0 0 0 63.937561 63.937561h205.799024a64.007493 64.007493 0 0 0 63.937561-63.937561v-205.799024a64.007493 64.007493 0 0 0-63.937561-63.937561z m0 269.736585h-205.799024v-205.799024h205.799024v205.799024zM831.687805 557.955122h-205.799025a64.007493 64.007493 0 0 0-63.93756 63.937561v205.799024a64.007493 64.007493 0 0 0 63.93756 63.937561h205.799025a64.007493 64.007493 0 0 0 63.937561-63.937561v-205.799024a64.007493 64.007493 0 0 0-63.937561-63.937561z m0 269.736585h-205.799025v-205.799024h205.799025v205.799024z" p-id="1043"></path></svg>