<svg t="1613921218483" class="icon" viewBox="0 0 1024 1024" version="1.1" xmlns="http://www.w3.org/2000/svg" p-id="5133" width="200" height="200"><path d="M512 298.666667m-42.666667 0a42.666667 42.666667 0 1 0 85.333334 0 42.666667 42.666667 0 1 0-85.333334 0Z" p-id="5134"></path><path d="M896 213.333333h-42.666667V170.666667a128 128 0 0 0-128-128H128a128 128 0 0 0-128 128v512a128 128 0 0 0 128 128h42.666667v42.666666a128 128 0 0 0 128 128h597.333333a128 128 0 0 0 128-128V341.333333a128 128 0 0 0-128-128zM128 128h597.333333a42.666667 42.666667 0 0 1 42.666667 42.666667v366.506666l-140.373333-140.8a42.666667 42.666667 0 0 0-60.586667 0L469.333333 494.506667l-140.373333-140.8a42.666667 42.666667 0 0 0-60.586667 0L85.333333 537.173333V170.666667a42.666667 42.666667 0 0 1 42.666667-42.666667zM85.333333 682.666667v-25.173334l213.333334-213.333333 140.373333 140.8a42.666667 42.666667 0 0 0 60.586667 0l97.706666-98.133333 170.666667 170.666666V682.666667a42.666667 42.666667 0 0 1-42.666667 42.666666H128a42.666667 42.666667 0 0 1-42.666667-42.666666z m853.333334 170.666666a42.666667 42.666667 0 0 1-42.666667 42.666667H298.666667a42.666667 42.666667 0 0 1-42.666667-42.666667v-42.666666h469.333333a128 128 0 0 0 128-128V298.666667h42.666667a42.666667 42.666667 0 0 1 42.666667 42.666666z" p-id="5135"></path></svg>
