<svg t="1617248281497" class="icon" viewBox="0 0 1024 1024" version="1.1" xmlns="http://www.w3.org/2000/svg" p-id="1677" width="200" height="200"><path d="M755.114667 483.114667c51.456 15.914667 107.776 53.845333 108.970666 122.453333 0 111.402667-161.621333 252.202667-404.053333 252.202667C273.92 857.770667 85.333333 767.189333 85.333333 620.245333c0-77.141333 48.981333-166.528 132.266667-251.008 112.64-111.445333 243.626667-162.858667 292.608-113.92 22.058667 22.058667 23.296 58.794667 9.813333 104.106667-7.338667 22.058667 20.821333 9.813333 20.821334 9.813333 91.818667-37.973333 170.24-40.405333 199.594666 1.194667 15.914667 22.058667 14.677333 53.888 0 89.386667-6.144 17.152 2.432 19.626667 14.677334 23.296z m-295.082667 320.810666c146.944-13.482667 259.584-104.106667 249.770667-202.069333-9.813333-96.725333-137.130667-164.053333-285.269334-149.333333-146.944 14.677333-259.626667 105.258667-249.813333 201.984 9.813333 96.768 137.130667 164.096 285.312 149.418666zM916.736 212.48a238.506667 238.506667 0 0 1 48.981333 230.229333c-6.101333 18.346667-24.490667 28.16-42.837333 22.016-18.346667-6.101333-28.16-24.490667-22.058667-42.837333a169.6 169.6 0 0 0-35.498666-164.096 168.448 168.448 0 0 0-159.146667-51.413333 32.938667 32.938667 0 0 1-40.448-25.728 32.938667 32.938667 0 0 1 25.728-40.405334c80.810667-17.152 166.528 7.338667 225.28 72.234667z m-104.064 213.077333a29.781333 29.781333 0 0 1-18.346667-36.736c4.864-18.346667 1.194667-39.210667-12.245333-55.125333a59.690667 59.690667 0 0 0-53.888-17.109333c-14.72 3.669333-30.634667-6.144-34.304-22.058667a29.525333 29.525333 0 0 1 22.058667-35.498667c37.973333-8.576 80.810667 3.669333 108.970666 35.498667 29.397333 31.829333 36.736 74.666667 24.490667 112.64a29.226667 29.226667 0 0 1-36.693333 18.346667z m-337.92 102.826667c72.192 18.389333 110.165333 86.954667 79.573333 154.325333-29.44 68.565333-116.352 104.064-189.824 80.810667-70.997333-23.296-100.394667-93.056-69.802666-156.757333 30.634667-61.226667 110.208-96.725333 180.053333-78.336z m-53.930667 160.426667c13.482667-22.058667 6.144-48.981333-15.914666-58.752-22.016-9.813333-51.413333 0-66.133334 22.016-14.677333 22.058667-8.533333 48.981333 14.72 58.794666 22.058667 11.008 52.650667 1.194667 67.328-22.058666z m46.549334-59.989334c4.906667-8.576 2.432-18.346667-7.338667-22.058666a22.186667 22.186667 0 0 0-24.490667 9.813333c-4.906667 8.533333-2.474667 18.346667 6.101334 22.016 8.576 3.712 20.821333-1.194667 25.728-9.813333z" p-id="1678" fill="#ffffff"></path></svg>
